<?xml version="1.0" encoding="UTF-8"?>
<svg xmlns="http://www.w3.org/2000/svg" xmlns:xlink="http://www.w3.org/1999/xlink" width="128px" height="128px" viewBox="0 0 128 128" version="1.1">
<g id="surface1">
<path style=" stroke:none;fill-rule:nonzero;fill:rgb(23.137255%,53.333333%,76.470588%);fill-opacity:1;" d="M 128 113.777344 C 128 121.632812 121.632812 128 113.777344 128 L 14.222656 128 C 6.367188 128 0 121.632812 0 113.777344 L 0 14.222656 C 0 6.367188 6.367188 0 14.222656 0 L 113.777344 0 C 121.632812 0 128 6.367188 128 14.222656 Z M 128 113.777344 "/>
<path style=" stroke:none;fill-rule:nonzero;fill:rgb(100%,100%,100%);fill-opacity:1;" d="M 52.433594 32.445312 C 54.308594 27.375 58.605469 23.296875 64.226562 23.296875 C 70.070312 23.296875 74.15625 27.152344 76.023438 32.445312 L 97.632812 92.414062 C 98.292969 94.179688 98.515625 95.726562 98.515625 96.496094 C 98.515625 100.792969 94.988281 103.769531 90.910156 103.769531 C 86.277344 103.769531 83.960938 101.34375 82.859375 98.039062 L 79.546875 87.675781 L 48.898438 87.675781 L 45.59375 97.929688 C 44.492188 101.347656 42.175781 103.769531 37.65625 103.769531 C 33.246094 103.769531 29.5 100.460938 29.5 96.054688 C 29.5 94.289062 30.050781 92.96875 30.273438 92.414062 Z M 53.644531 72.464844 L 74.589844 72.464844 L 64.335938 40.496094 L 64.117188 40.496094 Z M 53.644531 72.464844 "/>
</g>
</svg>
