<?xml version="1.0" encoding="UTF-8"?>
<svg xmlns="http://www.w3.org/2000/svg" xmlns:xlink="http://www.w3.org/1999/xlink" width="128px" height="128px" viewBox="0 0 128 128" version="1.1">
<g id="surface1">
<path style=" stroke:none;fill-rule:nonzero;fill:rgb(23.137255%,53.333333%,76.470588%);fill-opacity:1;" d="M 128 113.777344 C 128 121.632812 121.632812 128 113.777344 128 L 14.222656 128 C 6.367188 128 0 121.632812 0 113.777344 L 0 14.222656 C 0 6.367188 6.367188 0 14.222656 0 L 113.777344 0 C 121.632812 0 128 6.367188 128 14.222656 Z M 128 113.777344 "/>
<path style=" stroke:none;fill-rule:nonzero;fill:rgb(100%,100%,100%);fill-opacity:1;" d="M 37.328125 32.886719 C 37.328125 27.59375 40.964844 24.617188 46.035156 24.617188 L 67.199219 24.617188 C 78.664062 24.617188 87.929688 32.335938 87.929688 44.019531 C 87.929688 51.738281 84.730469 56.921875 77.671875 60.226562 L 77.671875 60.449219 C 87.046875 61.769531 94.429688 69.597656 94.429688 79.1875 C 94.429688 94.734375 84.066406 103.113281 68.851562 103.113281 L 46.148438 103.113281 C 41.074219 103.113281 37.328125 99.917969 37.328125 94.738281 Z M 53.863281 55.703125 L 62.464844 55.703125 C 67.863281 55.703125 71.390625 52.507812 71.390625 46.992188 C 71.390625 41.8125 67.3125 39.167969 62.464844 39.167969 L 53.863281 39.167969 Z M 53.863281 88.558594 L 66.871094 88.558594 C 72.824219 88.558594 77.238281 85.140625 77.238281 78.96875 C 77.238281 73.785156 73.265625 70.257812 65.550781 70.257812 L 53.863281 70.257812 Z M 53.863281 88.558594 "/>
</g>
</svg>
