<?xml version="1.0" encoding="UTF-8"?>
<svg xmlns="http://www.w3.org/2000/svg" xmlns:xlink="http://www.w3.org/1999/xlink" width="128px" height="128px" viewBox="0 0 128 128" version="1.1">
<g id="surface1">
<path style=" stroke:none;fill-rule:nonzero;fill:rgb(23.137255%,53.333333%,76.470588%);fill-opacity:1;" d="M 128 113.777344 C 128 121.632812 121.632812 128 113.777344 128 L 14.222656 128 C 6.367188 128 0 121.632812 0 113.777344 L 0 14.222656 C 0 6.367188 6.367188 0 14.222656 0 L 113.777344 0 C 121.632812 0 128 6.367188 128 14.222656 Z M 128 113.777344 "/>
<path style=" stroke:none;fill-rule:nonzero;fill:rgb(100%,100%,100%);fill-opacity:1;" d="M 70.125 23.296875 C 78.175781 23.296875 93.828125 25.941406 93.828125 35.644531 C 93.828125 39.613281 91.070312 43.03125 86.992188 43.03125 C 82.472656 43.03125 79.386719 39.171875 70.125 39.171875 C 56.457031 39.171875 49.402344 50.75 49.402344 64.195312 C 49.402344 77.3125 56.566406 88.558594 70.125 88.558594 C 79.386719 88.558594 83.132812 83.929688 87.65625 83.929688 C 92.617188 83.929688 94.933594 88.890625 94.933594 91.421875 C 94.933594 102.003906 78.285156 104.429688 70.128906 104.429688 C 47.75 104.429688 32.207031 86.679688 32.207031 63.863281 C 32.203125 40.933594 47.636719 23.296875 70.125 23.296875 Z M 70.125 23.296875 "/>
</g>
</svg>
