<?xml version="1.0" encoding="UTF-8"?>
<svg xmlns="http://www.w3.org/2000/svg" xmlns:xlink="http://www.w3.org/1999/xlink" width="128px" height="128px" viewBox="0 0 128 128" version="1.1">
<g id="surface1">
<path style=" stroke:none;fill-rule:nonzero;fill:rgb(23.137255%,53.333333%,76.470588%);fill-opacity:1;" d="M 128 113.777344 C 128 121.632812 121.632812 128 113.777344 128 L 14.222656 128 C 6.367188 128 0 121.632812 0 113.777344 L 0 14.222656 C 0 6.367188 6.367188 0 14.222656 0 L 113.777344 0 C 121.632812 0 128 6.367188 128 14.222656 Z M 128 113.777344 "/>
<path style=" stroke:none;fill-rule:nonzero;fill:rgb(100%,100%,100%);fill-opacity:1;" d="M 32.203125 33.109375 C 32.203125 28.035156 35.730469 24.617188 40.691406 24.617188 L 58.988281 24.617188 C 83.6875 24.617188 97.800781 40.496094 97.800781 64.96875 C 97.800781 88.117188 82.804688 103.109375 60.09375 103.109375 L 40.910156 103.109375 C 37.273438 103.109375 32.203125 101.125 32.203125 94.84375 Z M 48.738281 87.898438 L 59.875 87.898438 C 74.097656 87.898438 80.601562 77.425781 80.601562 64.195312 C 80.601562 50.082031 73.992188 39.832031 58.773438 39.832031 L 48.738281 39.832031 Z M 48.738281 87.898438 "/>
</g>
</svg>
