<?xml version="1.0" encoding="UTF-8"?>
<svg xmlns="http://www.w3.org/2000/svg" xmlns:xlink="http://www.w3.org/1999/xlink" width="128px" height="128px" viewBox="0 0 128 128" version="1.1">
<g id="surface1">
<path style=" stroke:none;fill-rule:nonzero;fill:rgb(23.137255%,53.333333%,76.470588%);fill-opacity:1;" d="M 128 113.777344 C 128 121.632812 121.632812 128 113.777344 128 L 14.222656 128 C 6.367188 128 0 121.632812 0 113.777344 L 0 14.222656 C 0 6.367188 6.367188 0 14.222656 0 L 113.777344 0 C 121.632812 0 128 6.367188 128 14.222656 Z M 128 113.777344 "/>
<path style=" stroke:none;fill-rule:nonzero;fill:rgb(100%,100%,100%);fill-opacity:1;" d="M 43.445312 34.207031 C 43.445312 28.695312 46.199219 24.617188 52.042969 24.617188 L 79.382812 24.617188 C 84.671875 24.617188 87.210938 28.367188 87.210938 32.226562 C 87.210938 35.976562 84.566406 39.832031 79.382812 39.832031 L 59.980469 39.832031 L 59.980469 55.929688 L 78.0625 55.929688 C 83.464844 55.929688 86.113281 59.675781 86.113281 63.539062 C 86.113281 67.285156 83.355469 71.144531 78.0625 71.144531 L 59.980469 71.144531 L 59.980469 87.902344 L 80.375 87.902344 C 85.667969 87.902344 88.203125 91.652344 88.203125 95.507812 C 88.203125 99.261719 85.558594 103.117188 80.375 103.117188 L 51.9375 103.117188 C 47.085938 103.117188 43.449219 99.8125 43.449219 94.851562 L 43.449219 34.207031 Z M 43.445312 34.207031 "/>
</g>
</svg>
