<?xml version="1.0" encoding="UTF-8"?>
<svg xmlns="http://www.w3.org/2000/svg" xmlns:xlink="http://www.w3.org/1999/xlink" width="128px" height="128px" viewBox="0 0 128 128" version="1.1">
<g id="surface1">
<path style=" stroke:none;fill-rule:nonzero;fill:rgb(23.137255%,53.333333%,76.470588%);fill-opacity:1;" d="M 128 113.777344 C 128 121.632812 121.632812 128 113.777344 128 L 14.222656 128 C 6.367188 128 0 121.632812 0 113.777344 L 0 14.222656 C 0 6.367188 6.367188 0 14.222656 0 L 113.777344 0 C 121.632812 0 128 6.367188 128 14.222656 Z M 128 113.777344 "/>
<path style=" stroke:none;fill-rule:nonzero;fill:rgb(100%,100%,100%);fill-opacity:1;" d="M 44.492188 33.214844 C 44.492188 28.695312 47.578125 24.617188 53.089844 24.617188 L 81.3125 24.617188 C 86.164062 24.617188 88.699219 28.367188 88.699219 32.226562 C 88.699219 35.976562 86.273438 39.832031 81.3125 39.832031 L 61.027344 39.832031 L 61.027344 55.929688 L 78.117188 55.929688 C 83.40625 55.929688 86.050781 59.675781 86.050781 63.425781 C 86.050781 67.28125 83.40625 71.140625 78.117188 71.140625 L 61.027344 71.140625 L 61.027344 95.175781 C 61.027344 100.691406 57.5 103.773438 52.757812 103.773438 C 48.015625 103.773438 44.488281 100.691406 44.488281 95.175781 L 44.488281 33.214844 Z M 44.492188 33.214844 "/>
</g>
</svg>
