<?xml version="1.0" encoding="UTF-8"?>
<svg xmlns="http://www.w3.org/2000/svg" xmlns:xlink="http://www.w3.org/1999/xlink" width="128px" height="128px" viewBox="0 0 128 128" version="1.1">
<g id="surface1">
<path style=" stroke:none;fill-rule:nonzero;fill:rgb(23.137255%,53.333333%,76.470588%);fill-opacity:1;" d="M 128 113.777344 C 128 121.632812 121.632812 128 113.777344 128 L 14.222656 128 C 6.367188 128 0 121.632812 0 113.777344 L 0 14.222656 C 0 6.367188 6.367188 0 14.222656 0 L 113.777344 0 C 121.632812 0 128 6.367188 128 14.222656 Z M 128 113.777344 "/>
<path style=" stroke:none;fill-rule:nonzero;fill:rgb(100%,100%,100%);fill-opacity:1;" d="M 91.234375 56.585938 C 98.179688 56.585938 100.9375 60.113281 100.9375 67.171875 C 100.9375 88.449219 87.050781 104.433594 65 104.433594 C 42.621094 104.433594 27.074219 86.683594 27.074219 63.863281 C 27.074219 40.933594 42.511719 23.296875 65 23.296875 C 81.644531 23.296875 95.3125 31.121094 95.3125 38.839844 C 95.3125 43.582031 92.339844 46.554688 88.480469 46.554688 C 80.984375 46.554688 79.441406 38.511719 65 38.511719 C 51.222656 38.511719 44.273438 50.523438 44.273438 63.863281 C 44.273438 77.3125 51 89.222656 65 89.222656 C 73.710938 89.222656 83.742188 84.371094 83.742188 71.804688 L 72.496094 71.804688 C 67.976562 71.804688 64.777344 68.609375 64.777344 64.089844 C 64.777344 59.460938 68.304688 56.59375 72.496094 56.59375 L 91.234375 56.59375 Z M 91.234375 56.585938 "/>
</g>
</svg>
