<?xml version="1.0" encoding="UTF-8"?>
<svg xmlns="http://www.w3.org/2000/svg" xmlns:xlink="http://www.w3.org/1999/xlink" width="128px" height="128px" viewBox="0 0 128 128" version="1.1">
<g id="surface1">
<path style=" stroke:none;fill-rule:nonzero;fill:rgb(23.137255%,53.333333%,76.470588%);fill-opacity:1;" d="M 128 113.777344 C 128 121.632812 121.632812 128 113.777344 128 L 14.222656 128 C 6.367188 128 0 121.632812 0 113.777344 L 0 14.222656 C 0 6.367188 6.367188 0 14.222656 0 L 113.777344 0 C 121.632812 0 128 6.367188 128 14.222656 Z M 128 113.777344 "/>
<path style=" stroke:none;fill-rule:nonzero;fill:rgb(100%,100%,100%);fill-opacity:1;" d="M 90.667969 24.890625 C 85.757812 24.890625 81.777344 28.867188 81.777344 33.777344 L 81.777344 53.332031 L 46.222656 53.332031 L 46.222656 33.777344 C 46.222656 28.867188 42.242188 24.890625 37.332031 24.890625 C 32.421875 24.890625 28.445312 28.867188 28.445312 33.777344 L 28.445312 94.222656 C 28.445312 99.132812 32.421875 103.109375 37.332031 103.109375 C 42.242188 103.109375 46.222656 99.132812 46.222656 94.222656 L 46.222656 71.109375 L 81.777344 71.109375 L 81.777344 94.222656 C 81.777344 99.132812 85.757812 103.109375 90.667969 103.109375 C 95.578125 103.109375 99.554688 99.132812 99.554688 94.222656 L 99.554688 33.777344 C 99.554688 28.867188 95.578125 24.890625 90.667969 24.890625 Z M 90.667969 24.890625 "/>
</g>
</svg>
