<?xml version="1.0" encoding="UTF-8"?>
<svg xmlns="http://www.w3.org/2000/svg" xmlns:xlink="http://www.w3.org/1999/xlink" width="128px" height="128px" viewBox="0 0 128 128" version="1.1">
<g id="surface1">
<path style=" stroke:none;fill-rule:nonzero;fill:rgb(23.137255%,53.333333%,76.470588%);fill-opacity:1;" d="M 128 113.777344 C 128 121.632812 121.632812 128 113.777344 128 L 14.222656 128 C 6.367188 128 0 121.632812 0 113.777344 L 0 14.222656 C 0 6.367188 6.367188 0 14.222656 0 L 113.777344 0 C 121.632812 0 128 6.367188 128 14.222656 Z M 128 113.777344 "/>
<path style=" stroke:none;fill-rule:nonzero;fill:rgb(100%,100%,100%);fill-opacity:1;" d="M 55.734375 32.554688 C 55.734375 27.042969 59.261719 23.957031 64.003906 23.957031 C 68.742188 23.957031 72.269531 27.042969 72.269531 32.554688 L 72.269531 95.171875 C 72.269531 100.6875 68.742188 103.769531 64.003906 103.769531 C 59.265625 103.769531 55.734375 100.6875 55.734375 95.171875 Z M 55.734375 32.554688 "/>
</g>
</svg>
