<?xml version="1.0" encoding="UTF-8"?>
<svg xmlns="http://www.w3.org/2000/svg" xmlns:xlink="http://www.w3.org/1999/xlink" width="128px" height="128px" viewBox="0 0 128 128" version="1.1">
<g id="surface1">
<path style=" stroke:none;fill-rule:nonzero;fill:rgb(23.137255%,53.333333%,76.470588%);fill-opacity:1;" d="M 128 113.777344 C 128 121.632812 121.632812 128 113.777344 128 L 14.222656 128 C 6.367188 128 0 121.632812 0 113.777344 L 0 14.222656 C 0 6.367188 6.367188 0 14.222656 0 L 113.777344 0 C 121.632812 0 128 6.367188 128 14.222656 Z M 128 113.777344 "/>
<path style=" stroke:none;fill-rule:nonzero;fill:rgb(100%,100%,100%);fill-opacity:1;" d="M 82.140625 81.0625 C 82.140625 99.585938 70.34375 104.433594 60.3125 104.433594 C 52.703125 104.433594 40.027344 101.457031 40.027344 91.867188 C 40.027344 88.890625 42.5625 85.140625 46.199219 85.140625 C 50.609375 85.140625 54.46875 89.21875 59.429688 89.21875 C 65.605469 89.21875 65.605469 83.484375 65.605469 79.957031 L 65.605469 32.554688 C 65.605469 27.042969 69.132812 23.957031 73.871094 23.957031 C 78.613281 23.957031 82.140625 27.042969 82.140625 32.554688 Z M 82.140625 81.0625 "/>
</g>
</svg>
