<?xml version="1.0" encoding="UTF-8"?>
<svg xmlns="http://www.w3.org/2000/svg" xmlns:xlink="http://www.w3.org/1999/xlink" width="128px" height="128px" viewBox="0 0 128 128" version="1.1">
<g id="surface1">
<path style=" stroke:none;fill-rule:nonzero;fill:rgb(23.137255%,53.333333%,76.470588%);fill-opacity:1;" d="M 128 113.777344 C 128 121.632812 121.632812 128 113.777344 128 L 14.222656 128 C 6.367188 128 0 121.632812 0 113.777344 L 0 14.222656 C 0 6.367188 6.367188 0 14.222656 0 L 113.777344 0 C 121.632812 0 128 6.367188 128 14.222656 Z M 128 113.777344 "/>
<path style=" stroke:none;fill-rule:nonzero;fill:rgb(100%,100%,100%);fill-opacity:1;" d="M 35.289062 32.113281 C 35.289062 27.59375 38.59375 23.957031 43.554688 23.957031 C 48.296875 23.957031 51.820312 27.042969 51.820312 32.113281 L 51.820312 55.925781 L 78.941406 27.039062 C 80.15625 25.71875 82.246094 23.953125 85.335938 23.953125 C 89.523438 23.953125 93.496094 27.148438 93.496094 31.890625 C 93.496094 34.753906 91.734375 37.070312 88.09375 40.707031 L 67.253906 61.210938 L 92.71875 87.78125 C 95.363281 90.429688 97.351562 92.851562 97.351562 96.164062 C 97.351562 101.34375 93.277344 103.769531 88.753906 103.769531 C 85.5625 103.769531 83.464844 101.898438 80.375 98.589844 L 51.820312 67.71875 L 51.820312 95.828125 C 51.820312 100.132812 48.511719 103.765625 43.550781 103.765625 C 38.8125 103.765625 35.285156 100.683594 35.285156 95.828125 L 35.285156 32.113281 Z M 35.289062 32.113281 "/>
</g>
</svg>
