<?xml version="1.0" encoding="UTF-8"?>
<svg xmlns="http://www.w3.org/2000/svg" xmlns:xlink="http://www.w3.org/1999/xlink" width="128px" height="128px" viewBox="0 0 128 128" version="1.1">
<g id="surface1">
<path style=" stroke:none;fill-rule:nonzero;fill:rgb(23.137255%,53.333333%,76.470588%);fill-opacity:1;" d="M 128 113.777344 C 128 121.632812 121.632812 128 113.777344 128 L 14.222656 128 C 6.367188 128 0 121.632812 0 113.777344 L 0 14.222656 C 0 6.367188 6.367188 0 14.222656 0 L 113.777344 0 C 121.632812 0 128 6.367188 128 14.222656 Z M 128 113.777344 "/>
<path style=" stroke:none;fill-rule:nonzero;fill:rgb(100%,100%,100%);fill-opacity:1;" d="M 45.484375 32.554688 C 45.484375 27.042969 49.011719 23.957031 53.75 23.957031 C 58.488281 23.957031 62.015625 27.042969 62.015625 32.554688 L 62.015625 87.894531 L 81.644531 87.894531 C 87.261719 87.894531 89.6875 92.085938 89.578125 95.828125 C 89.363281 99.472656 86.492188 103.109375 81.644531 103.109375 L 54.078125 103.109375 C 48.679688 103.109375 45.484375 99.585938 45.484375 94.070312 Z M 45.484375 32.554688 "/>
</g>
</svg>
