<?xml version="1.0" encoding="UTF-8"?>
<svg xmlns="http://www.w3.org/2000/svg" xmlns:xlink="http://www.w3.org/1999/xlink" width="128px" height="128px" viewBox="0 0 128 128" version="1.1">
<g id="surface1">
<path style=" stroke:none;fill-rule:nonzero;fill:rgb(23.137255%,53.333333%,76.470588%);fill-opacity:1;" d="M 128 113.777344 C 128 121.632812 121.632812 128 113.777344 128 L 14.222656 128 C 6.367188 128 0 121.632812 0 113.777344 L 0 14.222656 C 0 6.367188 6.367188 0 14.222656 0 L 113.777344 0 C 121.632812 0 128 6.367188 128 14.222656 Z M 128 113.777344 "/>
<path style=" stroke:none;fill-rule:nonzero;fill:rgb(100%,100%,100%);fill-opacity:1;" d="M 29.0625 32.445312 C 29.722656 28.476562 34.023438 23.957031 39.867188 23.957031 C 45.378906 23.957031 49.683594 27.925781 50.894531 31.894531 L 63.902344 75.546875 L 64.125 75.546875 L 77.128906 31.894531 C 78.339844 27.925781 82.636719 23.957031 88.152344 23.957031 C 93.992188 23.957031 98.292969 28.476562 98.957031 32.445312 L 109.207031 93.960938 C 109.320312 94.625 109.320312 95.285156 109.320312 95.832031 C 109.320312 100.6875 105.792969 103.769531 101.382812 103.769531 C 95.757812 103.769531 93.558594 101.234375 92.785156 96.054688 L 86.277344 51.1875 L 86.058594 51.1875 L 72.828125 97.375 C 72.058594 100.019531 69.964844 103.769531 64.011719 103.769531 C 58.058594 103.769531 55.964844 100.019531 55.191406 97.375 L 41.960938 51.1875 L 41.742188 51.1875 L 35.234375 96.058594 C 34.464844 101.238281 32.257812 103.773438 26.636719 103.773438 C 22.230469 103.773438 18.703125 100.691406 18.703125 95.835938 C 18.703125 95.289062 18.703125 94.625 18.8125 93.964844 Z M 29.0625 32.445312 "/>
</g>
</svg>
