<?xml version="1.0" encoding="UTF-8"?>
<svg xmlns="http://www.w3.org/2000/svg" xmlns:xlink="http://www.w3.org/1999/xlink" width="128px" height="128px" viewBox="0 0 128 128" version="1.1">
<g id="surface1">
<path style=" stroke:none;fill-rule:nonzero;fill:rgb(23.137255%,53.333333%,76.470588%);fill-opacity:1;" d="M 128 113.777344 C 128 121.632812 121.632812 128 113.777344 128 L 14.222656 128 C 6.367188 128 0 121.632812 0 113.777344 L 0 14.222656 C 0 6.367188 6.367188 0 14.222656 0 L 113.777344 0 C 121.632812 0 128 6.367188 128 14.222656 Z M 128 113.777344 "/>
<path style=" stroke:none;fill-rule:nonzero;fill:rgb(100%,100%,100%);fill-opacity:1;" d="M 30.546875 32.554688 C 30.546875 27.042969 34.074219 23.957031 38.816406 23.957031 C 40.910156 23.957031 44.328125 25.609375 45.761719 27.59375 L 80.710938 74.230469 L 80.929688 74.230469 L 80.929688 32.554688 C 80.929688 27.042969 84.457031 23.957031 89.195312 23.957031 C 93.9375 23.957031 97.464844 27.042969 97.464844 32.554688 L 97.464844 95.171875 C 97.464844 100.6875 93.9375 103.769531 89.195312 103.769531 C 87.105469 103.769531 83.796875 102.117188 82.25 100.136719 L 47.304688 54.050781 L 47.082031 54.050781 L 47.082031 95.171875 C 47.082031 100.6875 43.554688 103.769531 38.8125 103.769531 C 34.070312 103.769531 30.542969 100.6875 30.542969 95.171875 L 30.542969 32.554688 Z M 30.546875 32.554688 "/>
</g>
</svg>
