<?xml version="1.0" encoding="UTF-8"?>
<svg xmlns="http://www.w3.org/2000/svg" xmlns:xlink="http://www.w3.org/1999/xlink" width="128px" height="128px" viewBox="0 0 128 128" version="1.1">
<g id="surface1">
<path style=" stroke:none;fill-rule:nonzero;fill:rgb(23.137255%,53.333333%,76.470588%);fill-opacity:1;" d="M 128 113.777344 C 128 121.632812 121.632812 128 113.777344 128 L 14.222656 128 C 6.367188 128 0 121.632812 0 113.777344 L 0 14.222656 C 0 6.367188 6.367188 0 14.222656 0 L 113.777344 0 C 121.632812 0 128 6.367188 128 14.222656 Z M 128 113.777344 "/>
<path style=" stroke:none;fill-rule:nonzero;fill:rgb(100%,100%,100%);fill-opacity:1;" d="M 26.082031 63.863281 C 26.082031 40.933594 41.519531 23.296875 64.007812 23.296875 C 86.164062 23.296875 101.929688 41.484375 101.929688 63.863281 C 101.929688 86.683594 86.605469 104.433594 64.007812 104.433594 C 41.628906 104.433594 26.082031 86.683594 26.082031 63.863281 Z M 84.734375 63.863281 C 84.734375 50.523438 77.789062 38.511719 64.007812 38.511719 C 50.226562 38.511719 43.28125 50.523438 43.28125 63.863281 C 43.28125 77.3125 50.003906 89.222656 64.007812 89.222656 C 78.007812 89.222656 84.734375 77.3125 84.734375 63.863281 Z M 84.734375 63.863281 "/>
</g>
</svg>
