<?xml version="1.0" encoding="UTF-8"?>
<svg xmlns="http://www.w3.org/2000/svg" xmlns:xlink="http://www.w3.org/1999/xlink" width="128px" height="128px" viewBox="0 0 128 128" version="1.1">
<g id="surface1">
<path style=" stroke:none;fill-rule:nonzero;fill:rgb(23.137255%,53.333333%,76.470588%);fill-opacity:1;" d="M 128 113.777344 C 128 121.632812 121.632812 128 113.777344 128 L 14.222656 128 C 6.367188 128 0 121.632812 0 113.777344 L 0 14.222656 C 0 6.367188 6.367188 0 14.222656 0 L 113.777344 0 C 121.632812 0 128 6.367188 128 14.222656 Z M 128 113.777344 "/>
<path style=" stroke:none;fill-rule:nonzero;fill:rgb(100%,100%,100%);fill-opacity:1;" d="M 38.316406 33.214844 C 38.316406 28.03125 41.40625 24.617188 46.917969 24.617188 L 66.433594 24.617188 C 82.640625 24.617188 94.65625 35.203125 94.65625 50.964844 C 94.65625 67.0625 82.199219 77.09375 67.097656 77.09375 L 54.863281 77.09375 L 54.863281 95.175781 C 54.863281 100.691406 51.335938 103.773438 46.59375 103.773438 C 41.847656 103.773438 38.320312 100.691406 38.320312 95.175781 L 38.320312 33.214844 Z M 54.855469 62.542969 L 66.097656 62.542969 C 73.046875 62.542969 77.453125 57.472656 77.453125 50.855469 C 77.453125 44.242188 73.046875 39.167969 66.097656 39.167969 L 54.855469 39.167969 Z M 54.855469 62.542969 "/>
</g>
</svg>
