<?xml version="1.0" encoding="UTF-8"?>
<svg xmlns="http://www.w3.org/2000/svg" xmlns:xlink="http://www.w3.org/1999/xlink" width="128px" height="128px" viewBox="0 0 128 128" version="1.1">
<g id="surface1">
<path style=" stroke:none;fill-rule:nonzero;fill:rgb(23.137255%,53.333333%,76.470588%);fill-opacity:1;" d="M 128 113.777344 C 128 121.632812 121.632812 128 113.777344 128 L 14.222656 128 C 6.367188 128 0 121.632812 0 113.777344 L 0 14.222656 C 0 6.367188 6.367188 0 14.222656 0 L 113.777344 0 C 121.632812 0 128 6.367188 128 14.222656 Z M 128 113.777344 "/>
<path style=" stroke:none;fill-rule:nonzero;fill:rgb(100%,100%,100%);fill-opacity:1;" d="M 83.410156 99.585938 C 78.007812 102.671875 71.503906 104.433594 64.007812 104.433594 C 41.628906 104.433594 26.082031 86.683594 26.082031 63.863281 C 26.082031 40.933594 41.519531 23.296875 64.007812 23.296875 C 86.164062 23.296875 101.929688 41.484375 101.929688 63.863281 C 101.929688 73.5625 99.394531 82.386719 94.542969 89.328125 L 100.828125 94.734375 C 102.925781 96.609375 104.691406 98.371094 104.691406 101.460938 C 104.691406 105.320312 100.828125 108.40625 97.085938 108.40625 C 94.652344 108.40625 92.675781 107.414062 89.695312 104.878906 Z M 82.089844 77.976562 C 83.960938 73.785156 84.734375 68.9375 84.734375 63.863281 C 84.734375 50.75 77.789062 38.511719 64.007812 38.511719 C 50.226562 38.511719 43.28125 50.523438 43.28125 63.863281 C 43.28125 77.3125 50.003906 89.222656 64.007812 89.222656 C 66.542969 89.222656 68.859375 88.890625 71.0625 88.449219 L 67.09375 84.589844 C 65.882812 83.484375 65 81.722656 65 80.179688 C 65 75.882812 67.980469 72.246094 72.496094 72.246094 C 74.039062 72.246094 75.359375 72.796875 76.6875 73.679688 Z M 82.089844 77.976562 "/>
</g>
</svg>
