<?xml version="1.0" encoding="UTF-8"?>
<svg xmlns="http://www.w3.org/2000/svg" xmlns:xlink="http://www.w3.org/1999/xlink" width="128px" height="128px" viewBox="0 0 128 128" version="1.1">
<g id="surface1">
<path style=" stroke:none;fill-rule:nonzero;fill:rgb(23.137255%,53.333333%,76.470588%);fill-opacity:1;" d="M 128 113.777344 C 128 121.632812 121.632812 128 113.777344 128 L 14.222656 128 C 6.367188 128 0 121.632812 0 113.777344 L 0 14.222656 C 0 6.367188 6.367188 0 14.222656 0 L 113.777344 0 C 121.632812 0 128 6.367188 128 14.222656 Z M 128 113.777344 "/>
<path style=" stroke:none;fill-rule:nonzero;fill:rgb(100%,100%,100%);fill-opacity:1;" d="M 38.316406 33.214844 C 38.316406 27.925781 41.292969 24.617188 46.808594 24.617188 L 66.210938 24.617188 C 83.1875 24.617188 93.660156 32.226562 93.660156 49.53125 C 93.660156 61.660156 84.511719 68.605469 73.265625 70.367188 L 92.011719 90.4375 C 93.550781 92.089844 94.210938 93.742188 94.210938 95.285156 C 94.210938 99.585938 90.792969 103.773438 85.949219 103.773438 C 83.960938 103.773438 81.316406 103 79.550781 100.90625 L 55.078125 71.25 L 54.859375 71.25 L 54.859375 95.171875 C 54.859375 100.6875 51.332031 103.769531 46.589844 103.769531 C 41.84375 103.769531 38.316406 100.6875 38.316406 95.171875 Z M 54.855469 59.34375 L 66.207031 59.34375 C 72.269531 59.34375 76.460938 55.703125 76.460938 49.53125 C 76.460938 43.25 72.265625 39.828125 66.207031 39.828125 L 54.855469 39.828125 Z M 54.855469 59.34375 "/>
</g>
</svg>
