<?xml version="1.0" encoding="UTF-8"?>
<svg xmlns="http://www.w3.org/2000/svg" xmlns:xlink="http://www.w3.org/1999/xlink" width="128px" height="128px" viewBox="0 0 128 128" version="1.1">
<g id="surface1">
<path style=" stroke:none;fill-rule:nonzero;fill:rgb(23.137255%,53.333333%,76.470588%);fill-opacity:1;" d="M 128 113.777344 C 128 121.632812 121.632812 128 113.777344 128 L 14.222656 128 C 6.367188 128 0 121.632812 0 113.777344 L 0 14.222656 C 0 6.367188 6.367188 0 14.222656 0 L 113.777344 0 C 121.632812 0 128 6.367188 128 14.222656 Z M 128 113.777344 "/>
<path style=" stroke:none;fill-rule:nonzero;fill:rgb(100%,100%,100%);fill-opacity:1;" d="M 85.777344 34.316406 C 85.777344 38.617188 82.910156 42.476562 78.394531 42.476562 C 73.878906 42.476562 70.347656 39.167969 63.730469 39.167969 C 58.988281 39.167969 54.691406 41.703125 54.691406 46.335938 C 54.691406 57.6875 91.515625 50.414062 91.515625 78.855469 C 91.515625 94.621094 78.507812 104.429688 63.292969 104.429688 C 54.800781 104.429688 36.503906 102.445312 36.503906 92.082031 C 36.503906 87.78125 39.371094 84.257812 43.890625 84.257812 C 49.070312 84.257812 55.242188 88.554688 62.410156 88.554688 C 69.683594 88.554688 73.65625 84.476562 73.65625 79.070312 C 73.65625 66.066406 36.835938 73.890625 36.835938 48.316406 C 36.835938 32.882812 49.511719 23.292969 64.175781 23.292969 C 70.347656 23.296875 85.777344 25.609375 85.777344 34.316406 Z M 85.777344 34.316406 "/>
</g>
</svg>
