<?xml version="1.0" encoding="UTF-8"?>
<svg xmlns="http://www.w3.org/2000/svg" xmlns:xlink="http://www.w3.org/1999/xlink" width="128px" height="128px" viewBox="0 0 128 128" version="1.1">
<g id="surface1">
<path style=" stroke:none;fill-rule:nonzero;fill:rgb(23.137255%,53.333333%,76.470588%);fill-opacity:1;" d="M 128 113.777344 C 128 121.632812 121.632812 128 113.777344 128 L 14.222656 128 C 6.367188 128 0 121.632812 0 113.777344 L 0 14.222656 C 0 6.367188 6.367188 0 14.222656 0 L 113.777344 0 C 121.632812 0 128 6.367188 128 14.222656 Z M 128 113.777344 "/>
<path style=" stroke:none;fill-rule:nonzero;fill:rgb(100%,100%,100%);fill-opacity:1;" d="M 55.738281 39.832031 L 43.71875 39.832031 C 38.429688 39.832031 36.222656 35.976562 36.222656 32.226562 C 36.222656 28.371094 38.980469 24.617188 43.71875 24.617188 L 84.292969 24.617188 C 89.027344 24.617188 91.785156 28.367188 91.785156 32.226562 C 91.785156 35.976562 89.585938 39.832031 84.292969 39.832031 L 72.269531 39.832031 L 72.269531 95.175781 C 72.269531 100.691406 68.742188 103.773438 64.003906 103.773438 C 59.265625 103.773438 55.738281 100.691406 55.738281 95.175781 Z M 55.738281 39.832031 "/>
</g>
</svg>
