<?xml version="1.0" encoding="UTF-8"?>
<svg xmlns="http://www.w3.org/2000/svg" xmlns:xlink="http://www.w3.org/1999/xlink" width="128px" height="128px" viewBox="0 0 128 128" version="1.1">
<g id="surface1">
<path style=" stroke:none;fill-rule:nonzero;fill:rgb(23.137255%,53.333333%,76.470588%);fill-opacity:1;" d="M 128 113.777344 C 128 121.632812 121.632812 128 113.777344 128 L 14.222656 128 C 6.367188 128 0 121.632812 0 113.777344 L 0 14.222656 C 0 6.367188 6.367188 0 14.222656 0 L 113.777344 0 C 121.632812 0 128 6.367188 128 14.222656 Z M 128 113.777344 "/>
<path style=" stroke:none;fill-rule:nonzero;fill:rgb(100%,100%,100%);fill-opacity:1;" d="M 28.445312 32.554688 C 28.445312 27.042969 32.59375 23.957031 37.332031 23.957031 C 42.074219 23.957031 46.222656 27.042969 46.222656 32.554688 L 46.222656 71.03125 C 46.222656 81.171875 53.527344 88.535156 64 88.535156 C 74.035156 88.535156 81.777344 80.734375 81.777344 71.03125 L 81.777344 32.554688 C 81.777344 27.042969 85.929688 23.957031 90.667969 23.957031 C 95.410156 23.957031 99.4375 27.042969 99.4375 32.554688 L 99.4375 71.910156 C 99.4375 90.433594 82.1875 104.433594 64 104.433594 C 45.589844 104.433594 28.445312 90.652344 28.445312 71.910156 Z M 28.445312 32.554688 "/>
</g>
</svg>
