<?xml version="1.0" encoding="UTF-8"?>
<svg xmlns="http://www.w3.org/2000/svg" xmlns:xlink="http://www.w3.org/1999/xlink" width="128px" height="128px" viewBox="0 0 128 128" version="1.1">
<g id="surface1">
<path style=" stroke:none;fill-rule:nonzero;fill:rgb(23.137255%,53.333333%,76.470588%);fill-opacity:1;" d="M 128 113.777344 C 128 121.632812 121.632812 128 113.777344 128 L 14.222656 128 C 6.367188 128 0 121.632812 0 113.777344 L 0 14.222656 C 0 6.367188 6.367188 0 14.222656 0 L 113.777344 0 C 121.632812 0 128 6.367188 128 14.222656 Z M 128 113.777344 "/>
<path style=" stroke:none;fill-rule:nonzero;fill:rgb(100%,100%,100%);fill-opacity:1;" d="M 31.703125 35.972656 C 31.152344 34.539062 30.933594 33.4375 30.933594 31.894531 C 30.933594 27.265625 35.011719 23.957031 39.421875 23.957031 C 43.171875 23.957031 45.484375 26.382812 46.914062 29.359375 L 64.003906 75.21875 L 81.09375 29.359375 C 82.523438 26.382812 84.839844 23.957031 88.585938 23.957031 C 92.996094 23.957031 97.074219 27.265625 97.074219 31.894531 C 97.074219 33.4375 96.859375 34.539062 96.300781 35.972656 L 72.164062 97.378906 C 70.726562 100.90625 68.851562 103.773438 64.003906 103.773438 C 59.152344 103.773438 57.28125 100.90625 55.84375 97.378906 Z M 31.703125 35.972656 "/>
</g>
</svg>
