<?xml version="1.0" encoding="UTF-8"?>
<svg xmlns="http://www.w3.org/2000/svg" xmlns:xlink="http://www.w3.org/1999/xlink" width="128px" height="128px" viewBox="0 0 128 128" version="1.1">
<g id="surface1">
<path style=" stroke:none;fill-rule:nonzero;fill:rgb(23.137255%,53.333333%,76.470588%);fill-opacity:1;" d="M 128 113.777344 C 128 121.632812 121.632812 128 113.777344 128 L 14.222656 128 C 6.367188 128 0 121.632812 0 113.777344 L 0 14.222656 C 0 6.367188 6.367188 0 14.222656 0 L 113.777344 0 C 121.632812 0 128 6.367188 128 14.222656 Z M 128 113.777344 "/>
<path style=" stroke:none;fill-rule:nonzero;fill:rgb(100%,100%,100%);fill-opacity:1;" d="M 15.28125 34.980469 C 14.949219 33.546875 14.839844 32.773438 14.839844 31.230469 C 14.839844 27.703125 17.816406 23.957031 22.667969 23.957031 C 27.957031 23.957031 30.496094 27.042969 31.484375 31.894531 L 40.855469 78.746094 L 41.078125 78.746094 L 55.410156 30.460938 C 56.621094 26.492188 59.933594 23.953125 64.007812 23.953125 C 68.089844 23.953125 71.390625 26.488281 72.609375 30.460938 L 86.9375 78.746094 L 87.15625 78.746094 L 96.535156 31.894531 C 97.519531 27.042969 100.058594 23.957031 105.351562 23.957031 C 110.199219 23.957031 113.175781 27.703125 113.175781 31.230469 C 113.175781 32.773438 113.066406 33.546875 112.734375 34.980469 L 98.738281 95.175781 C 97.632812 99.808594 93.996094 103.773438 87.824219 103.773438 C 82.425781 103.773438 78.234375 100.246094 76.914062 95.726562 L 64.125 53.167969 L 63.902344 53.167969 L 51.113281 95.726562 C 49.792969 100.246094 45.601562 103.773438 40.199219 103.773438 C 34.027344 103.773438 30.390625 99.808594 29.285156 95.175781 Z M 15.28125 34.980469 "/>
</g>
</svg>
