<?xml version="1.0" encoding="UTF-8"?>
<svg xmlns="http://www.w3.org/2000/svg" xmlns:xlink="http://www.w3.org/1999/xlink" width="128px" height="128px" viewBox="0 0 128 128" version="1.1">
<g id="surface1">
<path style=" stroke:none;fill-rule:nonzero;fill:rgb(23.137255%,53.333333%,76.470588%);fill-opacity:1;" d="M 128 113.777344 C 128 121.632812 121.632812 128 113.777344 128 L 14.222656 128 C 6.367188 128 0 121.632812 0 113.777344 L 0 14.222656 C 0 6.367188 6.367188 0 14.222656 0 L 113.777344 0 C 121.632812 0 128 6.367188 128 14.222656 Z M 128 113.777344 "/>
<path style=" stroke:none;fill-rule:nonzero;fill:rgb(100%,100%,100%);fill-opacity:1;" d="M 54.414062 61.109375 L 36.554688 36.855469 C 35.453125 35.421875 34.792969 33.765625 34.792969 32.003906 C 34.792969 27.152344 38.433594 23.957031 43.171875 23.957031 C 45.925781 23.957031 48.792969 25.832031 50.335938 28.035156 L 64.007812 47.4375 L 77.679688 28.035156 C 79.226562 25.832031 82.085938 23.957031 84.84375 23.957031 C 89.585938 23.957031 93.226562 27.152344 93.226562 32.003906 C 93.226562 33.765625 92.566406 35.421875 91.464844 36.851562 L 73.601562 61.105469 L 95.425781 90.433594 C 96.308594 91.644531 97.300781 93.738281 97.300781 96.054688 C 97.300781 100.6875 93.773438 103.769531 88.929688 103.769531 C 85.949219 103.769531 83.746094 102.449219 82.089844 100.136719 L 64.011719 75 L 45.929688 100.136719 C 44.277344 102.449219 42.074219 103.769531 39.097656 103.769531 C 34.246094 103.769531 30.71875 100.6875 30.71875 96.054688 C 30.71875 93.738281 31.710938 91.644531 32.59375 90.433594 Z M 54.414062 61.109375 "/>
</g>
</svg>
