<?xml version="1.0" encoding="UTF-8"?>
<svg xmlns="http://www.w3.org/2000/svg" xmlns:xlink="http://www.w3.org/1999/xlink" width="128px" height="128px" viewBox="0 0 128 128" version="1.1">
<g id="surface1">
<path style=" stroke:none;fill-rule:nonzero;fill:rgb(23.137255%,53.333333%,76.470588%);fill-opacity:1;" d="M 128 113.777344 C 128 121.632812 121.632812 128 113.777344 128 L 14.222656 128 C 6.367188 128 0 121.632812 0 113.777344 L 0 14.222656 C 0 6.367188 6.367188 0 14.222656 0 L 113.777344 0 C 121.632812 0 128 6.367188 128 14.222656 Z M 128 113.777344 "/>
<path style=" stroke:none;fill-rule:nonzero;fill:rgb(100%,100%,100%);fill-opacity:1;" d="M 94.652344 32.003906 C 94.652344 27.59375 91.347656 23.957031 86.714844 23.957031 C 83.847656 23.957031 81.3125 25.167969 79.882812 27.265625 L 64.007812 50.304688 L 48.132812 27.265625 C 46.699219 25.167969 44.164062 23.957031 41.296875 23.957031 C 36.667969 23.957031 33.363281 27.59375 33.363281 32.003906 C 33.363281 33.765625 33.914062 35.53125 34.90625 36.96875 L 53.332031 62.90625 L 53.332031 92.832031 C 53.332031 98.511719 57.933594 103.109375 63.613281 103.109375 L 64.390625 103.109375 C 70.066406 103.109375 74.667969 98.511719 74.667969 92.832031 L 74.667969 62.914062 L 93.113281 36.964844 C 94.105469 35.53125 94.652344 33.765625 94.652344 32.003906 Z M 94.652344 32.003906 "/>
</g>
</svg>
