<?xml version="1.0" encoding="UTF-8"?>
<svg xmlns="http://www.w3.org/2000/svg" xmlns:xlink="http://www.w3.org/1999/xlink" width="128px" height="128px" viewBox="0 0 128 128" version="1.1">
<g id="surface1">
<path style=" stroke:none;fill-rule:nonzero;fill:rgb(23.137255%,53.333333%,76.470588%);fill-opacity:1;" d="M 128 113.777344 C 128 121.632812 121.632812 128 113.777344 128 L 14.222656 128 C 6.367188 128 0 121.632812 0 113.777344 L 0 14.222656 C 0 6.367188 6.367188 0 14.222656 0 L 113.777344 0 C 121.632812 0 128 6.367188 128 14.222656 Z M 128 113.777344 "/>
<path style=" stroke:none;fill-rule:nonzero;fill:rgb(100%,100%,100%);fill-opacity:1;" d="M 86.332031 88.558594 C 90.957031 88.558594 94.269531 91.09375 94.269531 95.832031 C 94.269531 100.023438 90.296875 103.109375 86.332031 103.109375 L 43.003906 103.109375 C 37.164062 103.109375 33.746094 99.804688 33.746094 95.175781 C 33.746094 92.96875 34.515625 90.765625 35.949219 88.777344 L 71.449219 39.171875 L 42.453125 39.171875 C 38.042969 39.171875 34.738281 36.636719 34.738281 32.117188 C 34.738281 27.929688 38.265625 24.621094 42.453125 24.621094 L 82.804688 24.621094 C 89.195312 24.621094 92.058594 28.699219 92.058594 32.558594 C 92.058594 34.984375 91.070312 37.738281 89.636719 39.613281 L 54.355469 88.5625 L 86.332031 88.5625 Z M 86.332031 88.558594 "/>
</g>
</svg>
