<svg width="128" height="128" xmlns="http://www.w3.org/2000/svg" version="1.1">

 <g>
  <title>Layer 1</title>
  <path id="svg_1" fill="rgb(23.137255%,53.333333%,76.470588%)" fill-rule="nonzero" d="m128,113.77734c0,7.85547 -6.36719,14.22266 -14.22266,14.22266l-99.55468,0c-7.85547,0 -14.22266,-6.36719 -14.22266,-14.22266l0,-99.55468c0,-7.85547 6.36719,-14.22266 14.22266,-14.22266l99.55468,0c7.85547,0 14.22266,6.36719 14.22266,14.22266l0,99.55468zm0,0"/>
  <path id="svg_2" fill="rgb(100%,100%,100%)" fill-rule="nonzero" d="m12.85305,39.63867l-5.04336,0c-4.10132,0 -5.80969,-3.85938 -5.80969,-7.60547c0,-3.85938 2.13547,-7.60938 5.80969,-7.60938l12.13737,0c3.67726,0 5.73094,3.41797 5.73094,7.82422l0,62.73047c0,5.51562 -2.73522,8.59766 -6.4155,8.59766c-3.67423,0 -6.40945,-3.08204 -6.40945,-8.59766l0,-55.33984zm0,0"/>
  <path fill="rgb(100%,100%,100%)" fill-rule="nonzero" d="m78,63.99804c0,-17.96875 5.55279,-40.5664 23.35419,-40.5664c17.80764,0 23.35731,22.59765 23.35731,40.5664c0,17.97266 -5.54967,40.57031 -23.35731,40.57031c-17.8014,0 -23.35419,-22.59765 -23.35419,-40.57031zm32.96069,0c0,-8.375 -0.61524,-25.57422 -9.60339,-25.57422c-8.98814,0 -9.60651,17.19922 -9.60651,25.57422c0,7.82813 0.61837,25.57813 9.60651,25.57813c8.98815,0 9.60339,-17.75 9.60339,-25.57813zm0,0"/>
  <path stroke-width="0" fill="rgb(100%,100%,100%)" fill-rule="nonzero" d="m29,63.99804c0,-17.96875 5.5358,-40.5664 23.28276,-40.5664c17.75318,0 23.28587,22.59765 23.28587,40.5664c0,17.97266 -5.53269,40.57031 -23.28587,40.57031c-17.74696,0 -23.28276,-22.59765 -23.28276,-40.57031zm32.85989,0c0,-8.375 -0.61336,-25.57422 -9.57402,-25.57422c-8.96065,0 -9.57713,17.19922 -9.57713,25.57422c0,7.82813 0.61648,25.57813 9.57713,25.57813c8.96066,0 9.57402,-17.75 9.57402,-25.57813zm0,0"/>
 </g>
</svg>