<svg width="128" height="128" xmlns="http://www.w3.org/2000/svg" version="1.1">

 <g>
  <title>Layer 1</title>
  <path id="svg_1" fill="rgb(23.137255%,53.333333%,76.470588%)" fill-rule="nonzero" d="m128,113.68485c0,7.86774 -6.36719,14.24488 -14.22266,14.24488l-99.55469,0c-7.85547,0 -14.22266,-6.37714 -14.22266,-14.24488l0,-99.71024c0,-7.86774 6.36719,-13.93238 14.22266,-13.93238l99.55469,-0.10417c7.85547,0 14.22266,6.16881 14.22266,14.03655l0,99.71024zm0,0"/>
  <path id="svg_2" fill="rgb(100%,100%,100%)" fill-rule="nonzero" d="m54.7539,89.35742c4.85547,0 8.60547,2.20313 8.60547,7.27344c0,5.07422 -3.75,7.27735 -7.9375,7.27735l-36.82422,0c-4.84765,0 -8.59765,-2.20313 -8.59765,-7.27735c0,-2.30859 1.43359,-4.29687 2.53515,-5.62109c9.14844,-10.91016 19.07422,-20.83594 27.45313,-32.96485c1.98437,-2.86328 3.85937,-6.28515 3.85937,-10.2539c0,-4.51563 -3.41797,-8.48438 -7.9414,-8.48438c-12.67969,0 -6.61329,17.85938 -17.19532,17.85938c-5.29297,0 -8.05078,-3.75 -8.05078,-8.05078c0,-13.88672 12.34766,-25.02344 25.91016,-25.02344c13.5625,0 24.47265,8.92969 24.47265,22.92969c0,15.32031 -17.08593,30.53906 -26.45703,42.33203l20.16797,0l0,0.0039zm0,0"/>
  <path fill="rgb(100%,100%,100%)" fill-rule="nonzero" d="m87.375,50.84738c2.64453,-0.55079 5.51172,-1.10157 8.26953,-1.10157c13.33984,0 22.82031,10.58594 22.82031,23.48047c0,18.41016 -10.13672,30.53906 -29.21484,30.53906c-7.82422,0 -24.25,-5.07421 -24.25,-14.77343c0,-4.07813 3.41406,-7.49219 7.49219,-7.49219c4.41015,0 9.70312,7.05469 17.08984,7.05469c7.71484,0 11.69141,-7.5 11.69141,-14.44141c0,-6.61328 -3.75391,-11.13281 -10.58594,-11.13281c-6.39844,0 -7.38672,3.63672 -13.01172,3.63672c-4.29688,0 -6.5,-3.30469 -6.5,-5.17969c0,-1.43359 0.21875,-2.53516 0.32812,-3.75l2.75391,-23.26563c1.21094,-8.59765 3.30469,-10.47265 8.59766,-10.47265l26.5664,0c5.07813,0 8.05078,2.97656 8.05078,6.94531c0,7.60938 -5.73046,8.26953 -7.71875,8.26953l-20.72265,0l-1.65625,11.6836zm0,0"/>
 </g>
</svg>