<svg width="128" height="128" xmlns="http://www.w3.org/2000/svg" version="1.1">

 <g>
  <title>Layer 1</title>
  <path id="svg_1" fill="rgb(23.137255%,53.333333%,76.470588%)" fill-rule="nonzero" d="m128,113.68485c0,7.86774 -6.36719,14.24488 -14.22266,14.24488l-99.55469,0c-7.85547,0 -14.22266,-6.37714 -14.22266,-14.24488l0,-99.71024c0,-7.86774 6.36719,-13.93238 14.22266,-13.93238l99.55469,-0.10417c7.85547,0 14.22266,6.16881 14.22266,14.03655l0,99.71024zm0,0"/>
  <path fill="rgb(100%,100%,100%)" fill-rule="nonzero" d="m27.375,50.99024c2.64453,-0.55079 5.51172,-1.10157 8.26953,-1.10157c13.33984,0 22.82031,10.58594 22.82031,23.48047c0,18.41016 -10.13672,30.53906 -29.21484,30.53906c-7.82422,0 -24.25,-5.07421 -24.25,-14.77343c0,-4.07813 3.41406,-7.49219 7.49219,-7.49219c4.41015,0 9.70312,7.05469 17.08984,7.05469c7.71484,0 11.69141,-7.5 11.69141,-14.44141c0,-6.61328 -3.75391,-11.13281 -10.58594,-11.13281c-6.39844,0 -7.38672,3.63672 -13.01172,3.63672c-4.29688,0 -6.5,-3.30469 -6.5,-5.17969c0,-1.43359 0.21875,-2.53516 0.32812,-3.75l2.75391,-23.26563c1.21094,-8.59765 3.30469,-10.47265 8.59766,-10.47265l26.5664,0c5.07813,0 8.05078,2.97656 8.05078,6.94531c0,7.60938 -5.73046,8.26953 -7.71875,8.26953l-20.72265,0l-1.65625,11.6836zm0,0"/>
  <path fill="rgb(100%,100%,100%)" fill-rule="nonzero" d="m65,63.99804c0,-17.96875 6.94531,-40.5664 29.21094,-40.5664c22.27343,0 29.21484,22.59765 29.21484,40.5664c0,17.97266 -6.94141,40.57031 -29.21484,40.57031c-22.26563,0 -29.21094,-22.59765 -29.21094,-40.57031zm41.22656,0c0,-8.375 -0.76953,-25.57422 -12.01172,-25.57422c-11.24218,0 -12.01562,17.19922 -12.01562,25.57422c0,7.82813 0.77344,25.57813 12.01562,25.57813c11.24219,0 12.01172,-17.75 12.01172,-25.57813zm0,0"/>
 </g>
</svg>