<svg width="128" height="128" xmlns="http://www.w3.org/2000/svg" version="1.1">

 <g>
  <title>Layer 1</title>
  <path id="svg_1" fill="rgb(23.137255%,53.333333%,76.470588%)" fill-rule="nonzero" d="m128,113.68485c0,7.86774 -6.36719,14.24488 -14.22266,14.24488l-99.55469,0c-7.85547,0 -14.22266,-6.37714 -14.22266,-14.24488l0,-99.71024c0,-7.86774 6.36719,-13.93238 14.22266,-13.93238l99.55469,-0.10417c7.85547,0 14.22266,6.16881 14.22266,14.03655l0,99.71024zm0,0"/>
  <path fill="rgb(100%,100%,100%)" fill-rule="nonzero" d="m87.375,50.99024c2.64453,-0.55079 5.51172,-1.10157 8.26953,-1.10157c13.33984,0 22.82031,10.58594 22.82031,23.48047c0,18.41016 -10.13672,30.53906 -29.21484,30.53906c-7.82422,0 -24.25,-5.07421 -24.25,-14.77343c0,-4.07813 3.41406,-7.49219 7.49219,-7.49219c4.41015,0 9.70312,7.05469 17.08984,7.05469c7.71484,0 11.69141,-7.5 11.69141,-14.44141c0,-6.61328 -3.75391,-11.13281 -10.58594,-11.13281c-6.39844,0 -7.38672,3.63672 -13.01172,3.63672c-4.29688,0 -6.5,-3.30469 -6.5,-5.17969c0,-1.43359 0.21875,-2.53516 0.32812,-3.75l2.75391,-23.26563c1.21094,-8.59765 3.30469,-10.47265 8.59766,-10.47265l26.5664,0c5.07813,0 8.05078,2.97656 8.05078,6.94531c0,7.60938 -5.73046,8.26953 -7.71875,8.26953l-20.72265,0l-1.65625,11.6836zm0,0"/>
  <path fill="rgb(100%,100%,100%)" fill-rule="nonzero" d="m46.375,39.64062l-28.21875,0c-5.95313,0 -8.15625,-3.85547 -8.15625,-7.60547c0,-3.85547 2.09375,-7.60937 8.15625,-7.60937l39.90625,0c5.625,0 7.9414,5.07031 7.9414,7.9375c0,2.20312 -1.21484,4.51953 -2.53515,7.27344l-27.34375,55.5625c-3.08594,6.17187 -4.29688,8.375 -9.25782,8.375c-6.0625,0 -9.15234,-4.62891 -9.15234,-7.82422c0,-1.32422 0.33203,-2.3125 1.10547,-3.85938l27.55469,-52.25zm0,0"/>
 </g>
</svg>